<svg width="18.320007" height="18.320007" viewBox="0 0 18.32 18.32" fill="none" xmlns="http://www.w3.org/2000/svg" xmlns:xlink="http://www.w3.org/1999/xlink">
	<desc>
			Created with Pixso.
	</desc>
	<defs/>
	<path id="path" d="M1.01999 10.14L1 10.16C0.440002 10.16 0 9.72 0 9.16C0 8.60001 0.440002 8.16 1 8.16L1.01999 8.17999L1.01999 10.14ZM17.3 8.17999L17.32 8.16C17.88 8.16 18.32 8.60001 18.32 9.16C18.32 9.72 17.88 10.16 17.32 10.16L17.3 10.14L17.3 8.17999ZM8.17999 1.01999L8.16 1C8.16 0.440002 8.60001 0 9.16 0C9.72 0 10.16 0.440002 10.16 1L10.14 1.01999L8.17999 1.01999ZM10.14 17.3L10.16 17.32C10.16 17.88 9.72 18.32 9.16 18.32C8.60001 18.32 8.16 17.88 8.16 17.32L8.17999 17.3L10.14 17.3Z" fill="#000000" fill-opacity="0" fill-rule="nonzero"/>
	<path id="path" d="M1 9.16L17.32 9.16M9.16 1L9.16 17.32" stroke="#182978" stroke-opacity="1.000000" stroke-width="2.000000" stroke-linejoin="round"/>
</svg>
