<svg width="17.358337" height="12.000153" viewBox="0 0 17.3583 12.0002" fill="none" xmlns="http://www.w3.org/2000/svg" xmlns:xlink="http://www.w3.org/1999/xlink">
	<desc>
			Created with Pixso.
	</desc>
	<defs/>
	<path id="path" d="M12.3406 1.47919L12.319 1.49738C11.9006 1.46136 11.6001 1.10425 11.6361 0.685822C11.6721 0.267365 12.0292 -0.0331116 12.4477 0.00292969L12.4659 0.0245667L12.3406 1.47919ZM4.82068 0.0334778L4.83875 0.0117188C5.2569 -0.0272522 5.61609 0.270691 5.65509 0.688873C5.69409 1.10706 5.39612 1.46628 4.97797 1.50525L4.95618 1.48718L4.82068 0.0334778Z" fill="#000000" fill-opacity="0" fill-rule="nonzero"/>
	<path id="path" d="M12.3834 0.750153C15.3834 1.00848 16.6083 2.55014 16.6083 5.92514L16.6083 6.03348C16.6083 9.75848 15.1167 11.2502 11.3917 11.2502L5.96667 11.2502C2.24164 11.2502 0.75 9.75848 0.75 6.03348L0.75 5.92514C0.75 2.57516 1.95831 1.03348 4.90833 0.758484" stroke="#182978" stroke-opacity="1.000000" stroke-width="1.500000" stroke-linejoin="round" stroke-linecap="round"/>
</svg>
