<svg width="28.000000" height="28.000000" viewBox="0 0 28 28" fill="none" xmlns="http://www.w3.org/2000/svg" xmlns:xlink="http://www.w3.org/1999/xlink">
	<desc>
			Created with Pixso.
	</desc>
	<defs>
		<clipPath id="clip3_63">
			<rect id="svg" width="28.000000" height="28.000000" fill="white" fill-opacity="0"/>
		</clipPath>
	</defs>
	<g clip-path="url(#clip3_63)">
		<path id="path" d="M14 9.625C11.5837 9.625 9.625 11.5838 9.625 14C9.625 16.4163 11.5837 18.375 14 18.375C16.4163 18.375 18.375 16.4163 18.375 14C18.375 11.5838 16.4163 9.625 14 9.625ZM11.375 14C11.375 12.5503 12.5503 11.375 14 11.375C15.4497 11.375 16.625 12.5503 16.625 14C16.625 15.4497 15.4497 16.625 14 16.625C12.5503 16.625 11.375 15.4497 11.375 14Z" fill="#313030" fill-opacity="1.000000" fill-rule="evenodd"/>
		<path id="path" d="M13.9705 1.45834C13.452 1.45833 13.0191 1.45833 12.6637 1.48258C12.2938 1.50782 11.9443 1.56224 11.6056 1.70256C10.8195 2.02819 10.1949 2.65277 9.8692 3.4389C9.69971 3.84817 9.65381 4.27948 9.63629 4.7483C9.62219 5.12517 9.43201 5.43961 9.15131 5.60166C8.87061 5.76371 8.50323 5.77119 8.1698 5.59497C7.755 5.37574 7.35852 5.19983 6.91931 5.14201C6.07568 5.03094 5.22253 5.25957 4.54742 5.77757C4.25653 6.0008 4.03467 6.27621 3.82782 6.58398C3.62915 6.87962 3.41272 7.25452 3.15344 7.70359C2.89417 8.15265 2.64825 8.57856 2.49158 8.89845C2.32849 9.23146 2.20087 9.5613 2.15302 9.92485C2.04193 10.7685 2.27057 11.6217 2.78851 12.2968C3.05817 12.6481 3.40869 12.9036 3.80591 13.1531C4.12531 13.3538 4.30255 13.6758 4.30255 14C4.30249 14.3241 4.12524 14.6461 3.80591 14.8468C3.40863 15.0963 3.05811 15.3518 2.78845 15.7032C2.27045 16.3783 2.04181 17.2314 2.15289 18.0751C2.20074 18.4386 2.32837 18.7685 2.49146 19.1015C2.64813 19.4214 2.86462 19.7962 3.12384 20.2453C3.38312 20.6943 3.62903 21.1203 3.8277 21.4159C4.03455 21.7237 4.25641 21.9991 4.5473 22.2223C5.22241 22.7403 6.07556 22.969 6.91919 22.8579C7.3584 22.8001 7.75488 22.6242 8.16962 22.405C8.50305 22.2287 8.87054 22.2362 9.15125 22.3984C9.43195 22.5604 9.62219 22.8748 9.63629 23.2518C9.65381 23.7206 9.69971 24.1519 9.8692 24.5611C10.1949 25.3472 10.8195 25.9719 11.6056 26.2975C11.9443 26.4378 12.2938 26.4922 12.6637 26.5174C13.0191 26.5417 13.452 26.5417 13.9705 26.5417C14.4891 26.5417 14.9808 26.5417 15.3363 26.5174C15.7063 26.4922 16.0557 26.4378 16.3945 26.2975C17.1806 25.9719 17.8052 25.3472 18.1309 24.5611C18.3004 24.1519 18.3462 23.7206 18.3637 23.2517C18.3778 22.8748 18.568 22.5604 18.8487 22.3983C19.1294 22.2362 19.4969 22.2287 19.8303 22.4049C20.2451 22.6241 20.6415 22.8001 21.0807 22.8578C21.9244 22.9689 22.7775 22.7403 23.4526 22.2223C23.7435 21.999 23.9653 21.7237 24.1722 21.4159C24.3708 21.1203 24.5873 20.7454 24.8465 20.2964C25.1058 19.8473 25.3518 19.4213 25.5085 19.1014C25.6716 18.7684 25.7991 18.4386 25.847 18.0751C25.9581 17.2313 25.7294 16.3781 25.2114 15.7031C24.9418 15.3517 24.5912 15.0963 24.1941 14.8468C23.8747 14.6461 23.6974 14.3241 23.6974 13.9999C23.6974 13.6758 23.8747 13.3539 24.194 13.1532C24.5914 12.9037 24.942 12.6483 25.2115 12.2968C25.7296 11.6217 25.9583 10.7686 25.8472 9.92494C25.7992 9.56138 25.6717 9.23154 25.5086 8.89853C25.3519 8.57866 25.1355 8.20381 24.8762 7.75479C24.6168 7.3057 24.371 6.8797 24.1723 6.58406C23.9655 6.27629 23.7437 6.00088 23.4527 5.77764C22.7776 5.25965 21.9245 5.03103 21.0807 5.14209C20.6416 5.19991 20.2452 5.3758 19.8304 5.59502C19.497 5.77127 19.1295 5.76376 18.8488 5.60169C18.5681 5.43963 18.3778 5.12514 18.3637 4.74824C18.3462 4.27944 18.3004 3.84814 18.1309 3.4389C17.8052 2.65277 17.1806 2.02819 16.3945 1.70256C16.0557 1.56224 15.7063 1.50782 15.3363 1.48258C14.9808 1.45833 14.4891 1.45833 13.9705 1.45834ZM12.2752 3.31935C12.3653 3.28207 12.502 3.24768 12.7828 3.22852C13.0716 3.20882 13.4445 3.20834 14 3.20834C14.5556 3.20834 14.9285 3.20882 15.2171 3.22852C15.498 3.24768 15.6348 3.28207 15.7247 3.31935C16.082 3.46737 16.366 3.75126 16.514 4.1086C16.5607 4.22131 16.5994 4.39703 16.615 4.81364C16.6495 5.73809 17.1267 6.62818 17.9738 7.11724C18.8208 7.6063 19.8303 7.57448 20.6481 7.1422C21.0167 6.94739 21.1883 6.89305 21.3092 6.87712C21.6927 6.82664 22.0804 6.93056 22.3873 7.166C22.4647 7.22532 22.5627 7.32655 22.7198 7.5602C22.8813 7.80038 23.0681 8.12304 23.3458 8.60418C23.6236 9.08532 23.8097 9.40845 23.937 9.66833C24.0608 9.92113 24.0994 10.0568 24.1121 10.1534C24.1626 10.5368 24.0587 10.9246 23.8232 11.2315C23.7489 11.3283 23.6161 11.4497 23.263 11.6715C22.4798 12.1637 21.9476 13.0219 21.9474 13.9999C21.9474 14.978 22.4797 15.8363 23.263 16.3286C23.616 16.5503 23.7488 16.6717 23.8231 16.7685C24.0585 17.0753 24.1625 17.4631 24.112 17.8466C24.0992 17.9432 24.0607 18.0788 23.9369 18.3316C23.8096 18.5914 23.6235 18.9146 23.3457 19.3957C23.0679 19.8769 22.8812 20.1996 22.7197 20.4398C22.5627 20.6733 22.4645 20.7746 22.3872 20.8339C22.0804 21.0694 21.6926 21.1733 21.3091 21.1229C21.1882 21.1069 21.0166 21.0525 20.648 20.8578C19.8302 20.4254 18.8207 20.3937 17.9736 20.8828C17.1267 21.3718 16.6495 22.2619 16.615 23.1863C16.5994 23.603 16.5607 23.7787 16.514 23.8915C16.366 24.2487 16.082 24.5327 15.7247 24.6807C15.6348 24.7179 15.498 24.7524 15.2171 24.7715C14.9285 24.7912 14.5556 24.7917 14 24.7917C13.4445 24.7917 13.0716 24.7912 12.7828 24.7715C12.502 24.7524 12.3653 24.7179 12.2752 24.6807C11.918 24.5327 11.634 24.2487 11.486 23.8915C11.4393 23.7787 11.4006 23.603 11.3851 23.1863C11.3505 22.262 10.8733 21.3718 10.0262 20.8828C9.17914 20.3937 8.16974 20.4255 7.35187 20.8578C6.98328 21.0526 6.81177 21.107 6.6908 21.1229C6.30731 21.1734 5.91949 21.0694 5.61267 20.834C5.53534 20.7747 5.43719 20.6735 5.28021 20.4398C5.11877 20.1997 4.93195 19.877 4.65417 19.3958C4.37634 18.9147 4.19037 18.5915 4.06305 18.3317C3.93921 18.0789 3.90063 17.9432 3.88794 17.8466C3.83746 17.4631 3.94135 17.0753 4.17682 16.7685C4.2511 16.6718 4.38391 16.5503 4.73694 16.3286C5.5202 15.8365 6.05249 14.9781 6.05255 14.0001C6.05261 13.0219 5.52026 12.1636 4.73694 11.6713C4.38397 11.4495 4.25116 11.3282 4.17688 11.2314C3.94147 10.9246 3.83752 10.5367 3.88806 10.1533C3.90076 10.0567 3.93933 9.92105 4.06317 9.66826C4.19049 9.40837 4.37646 9.08524 4.65424 8.6041C4.93207 8.12296 5.1189 7.8003 5.28033 7.56012C5.43732 7.32648 5.53546 7.22523 5.61279 7.16593C5.91962 6.93048 6.30743 6.82656 6.69092 6.87704C6.81189 6.89297 6.9834 6.94731 7.35205 7.14216C8.16986 7.57442 9.17926 7.60623 10.0263 7.1172C10.8734 6.62817 11.3505 5.73811 11.3851 4.8137C11.4006 4.39705 11.4393 4.22132 11.486 4.1086C11.634 3.75126 11.918 3.46737 12.2752 3.31935Z" fill="#313030" fill-opacity="1.000000" fill-rule="evenodd"/>
	</g>
</svg>
