<svg width="29.000000" height="28.000000" viewBox="0 0 29 28" fill="none" xmlns="http://www.w3.org/2000/svg" xmlns:xlink="http://www.w3.org/1999/xlink">
	<desc>
			Created with Pixso.
	</desc>
	<defs>
		<clipPath id="clip3_58">
			<rect id="svg" width="29.000000" height="28.000000" fill="white" fill-opacity="0"/>
		</clipPath>
	</defs>
	<g clip-path="url(#clip3_58)">
		<path id="path" d="M25.375 14C25.375 19.799 20.5062 24.5 14.5 24.5C8.4939 24.5 3.625 19.799 3.625 14C3.625 8.20101 8.4939 3.5 14.5 3.5C20.5062 3.5 25.375 8.20101 25.375 14ZM20.5417 17.5C20.5417 18.7887 19.4597 19.8333 18.125 19.8333C16.7903 19.8333 15.7083 18.7887 15.7083 17.5C15.7083 16.2113 16.7903 15.1667 18.125 15.1667C19.4597 15.1667 20.5417 16.2113 20.5417 17.5ZM13.2917 10.5C13.2917 11.7887 12.2097 12.8333 10.875 12.8333C9.54028 12.8333 8.45831 11.7887 8.45831 10.5C8.45831 9.21134 9.54028 8.16667 10.875 8.16667C12.2097 8.16667 13.2917 9.21134 13.2917 10.5ZM10.1881 19.1779L10.1876 19.2062C9.88544 19.4979 9.41882 19.4898 9.12714 19.1876C8.83539 18.8855 8.84357 18.4188 9.14575 18.1271L9.17401 18.1276L10.1881 19.1779ZM18.8119 8.82206L18.8124 8.79379C19.1146 8.50205 19.5812 8.51024 19.8729 8.81239C20.1646 9.11454 20.1564 9.58116 19.8542 9.87289L19.826 9.87239L18.8119 8.82206Z" fill="#000000" fill-opacity="0" fill-rule="nonzero"/>
		<path id="path" d="M9.66669 18.6667L19.3333 9.33333M14.5 24.5C8.4939 24.5 3.625 19.799 3.625 14C3.625 8.20101 8.4939 3.5 14.5 3.5C20.5062 3.5 25.375 8.20101 25.375 14C25.375 19.799 20.5062 24.5 14.5 24.5ZM18.125 19.8333C16.7903 19.8333 15.7083 18.7887 15.7083 17.5C15.7083 16.2113 16.7903 15.1667 18.125 15.1667C19.4597 15.1667 20.5417 16.2113 20.5417 17.5C20.5417 18.7887 19.4597 19.8333 18.125 19.8333ZM10.875 12.8333C9.54028 12.8333 8.45831 11.7887 8.45831 10.5C8.45831 9.21134 9.54028 8.16667 10.875 8.16667C12.2097 8.16667 13.2917 9.21134 13.2917 10.5C13.2917 11.7887 12.2097 12.8333 10.875 12.8333Z" stroke="#313030" stroke-opacity="1.000000" stroke-width="1.500000" stroke-linejoin="round" stroke-linecap="round"/>
	</g>
</svg>
