<svg width="29.000000" height="28.000000" viewBox="0 0 29 28" fill="none" xmlns="http://www.w3.org/2000/svg" xmlns:xlink="http://www.w3.org/1999/xlink">
	<desc>
			Created with Pixso.
	</desc>
	<defs>
		<clipPath id="clip3_45">
			<rect id="svg" width="29.000000" height="28.000000" fill="white" fill-opacity="0"/>
		</clipPath>
	</defs>
	<g clip-path="url(#clip3_45)">
		<path id="path" d="M19.3334 8.16666C19.3334 10.744 17.1694 12.8333 14.5 12.8333C11.8306 12.8333 9.66669 10.744 9.66669 8.16666C9.66669 5.58934 11.8306 3.5 14.5 3.5C17.1694 3.5 19.3334 5.58934 19.3334 8.16666ZM7.02167 24.48L7.04169 24.5C7.04169 25.06 6.60168 25.5 6.04169 25.5C5.48169 25.5 5.04169 25.06 5.04169 24.5L5.06171 24.48L7.02167 24.48ZM23.9384 24.48L23.9584 24.5C23.9584 25.06 23.5184 25.5 22.9584 25.5C22.3984 25.5 21.9584 25.06 21.9584 24.5L21.9783 24.48L23.9384 24.48Z" fill="#000000" fill-opacity="0" fill-rule="nonzero"/>
		<path id="path" d="M6.04169 24.5C6.04169 19.9897 9.82861 16.3333 14.5 16.3333C19.1714 16.3333 22.9584 19.9897 22.9584 24.5M14.5 12.8333C11.8306 12.8333 9.66669 10.744 9.66669 8.16666C9.66669 5.58934 11.8306 3.5 14.5 3.5C17.1694 3.5 19.3334 5.58934 19.3334 8.16666C19.3334 10.744 17.1694 12.8333 14.5 12.8333Z" stroke="#313030" stroke-opacity="1.000000" stroke-width="2.000000" stroke-linejoin="round" stroke-linecap="round"/>
	</g>
</svg>
