<svg width="36.000000" height="37.000000" viewBox="0 0 36 37" fill="none" xmlns="http://www.w3.org/2000/svg" xmlns:xlink="http://www.w3.org/1999/xlink">
	<desc>
			Created with Pixso.
	</desc>
	<defs>
		<clipPath id="clip3_40">
			<rect id="svg" width="36.000000" height="37.000000" fill="white" fill-opacity="0"/>
		</clipPath>
	</defs>
	<g clip-path="url(#clip3_40)">
		<path id="path" d="M9 16.28C9 15.667 8.51648 15.17 7.92004 15.17C7.32355 15.17 6.84003 15.667 6.84003 16.28L9 16.28ZM16.56 29.97C17.1565 29.97 17.64 29.473 17.64 28.86C17.64 28.247 17.1565 27.75 16.56 27.75L16.56 29.97ZM6.84003 16.28C6.84003 16.893 7.32355 17.39 7.92004 17.39C8.51648 17.39 9 16.893 9 16.28L6.84003 16.28ZM16.56 9.25C17.1565 9.25 17.64 8.75302 17.64 8.13998C17.64 7.52698 17.1565 7.03 16.56 7.03L16.56 9.25ZM7.92004 15.17C7.32355 15.17 6.84003 15.667 6.84003 16.28C6.84003 16.893 7.32355 17.39 7.92004 17.39L7.92004 15.17ZM16.56 17.39C17.1565 17.39 17.64 16.893 17.64 16.28C17.64 15.667 17.1565 15.17 16.56 15.17L16.56 17.39ZM15.48 16.28C15.48 16.893 15.9636 17.39 16.56 17.39C17.1565 17.39 17.64 16.893 17.64 16.28L15.48 16.28ZM17.64 8.13998C17.64 7.52698 17.1565 7.03 16.56 7.03C15.9636 7.03 15.48 7.52698 15.48 8.13998L17.64 8.13998ZM17.64 16.28C17.64 15.667 17.1565 15.17 16.56 15.17C15.9636 15.17 15.48 15.667 15.48 16.28L17.64 16.28ZM15.48 21.46C15.48 22.073 15.9636 22.57 16.56 22.57C17.1565 22.57 17.64 22.073 17.64 21.46L15.48 21.46ZM16.56 27.75C15.9636 27.75 15.48 28.247 15.48 28.86C15.48 29.473 15.9636 29.97 16.56 29.97L16.56 27.75ZM29.16 21.46C29.16 20.847 28.6765 20.35 28.08 20.35C27.4836 20.35 27 20.847 27 21.46L29.16 21.46ZM15.48 28.86C15.48 29.473 15.9636 29.97 16.56 29.97C17.1565 29.97 17.64 29.473 17.64 28.86L15.48 28.86ZM17.64 21.46C17.64 20.847 17.1565 20.35 16.56 20.35C15.9636 20.35 15.48 20.847 15.48 21.46L17.64 21.46ZM16.56 7.03C15.9636 7.03 15.48 7.52698 15.48 8.13998C15.48 8.75302 15.9636 9.25 16.56 9.25L16.56 7.03ZM27 21.46C27 22.073 27.4836 22.57 28.08 22.57C28.6765 22.57 29.16 22.073 29.16 21.46L27 21.46ZM28.08 22.57C28.6765 22.57 29.16 22.073 29.16 21.46C29.16 20.847 28.6765 20.35 28.08 20.35L28.08 22.57ZM16.56 20.35C15.9636 20.35 15.48 20.847 15.48 21.46C15.48 22.073 15.9636 22.57 16.56 22.57L16.56 20.35ZM6.84003 16.28L6.84003 22.94L9 22.94L9 16.28L6.84003 16.28ZM6.84003 22.94C6.84003 26.8226 9.9024 29.97 13.6801 29.97L13.6801 27.75C11.0953 27.75 9 25.5965 9 22.94L6.84003 22.94ZM13.6801 29.97L16.56 29.97L16.56 27.75L13.6801 27.75L13.6801 29.97ZM9 16.28L9 14.06L6.84003 14.06L6.84003 16.28L9 16.28ZM9 14.06C9 11.4035 11.0953 9.25 13.6801 9.25L13.6801 7.03C9.9024 7.03 6.84003 10.1774 6.84003 14.06L9 14.06ZM13.6801 9.25L16.56 9.25L16.56 7.03L13.6801 7.03L13.6801 9.25ZM7.92004 17.39L16.56 17.39L16.56 15.17L7.92004 15.17L7.92004 17.39ZM17.64 16.28L17.64 8.13998L15.48 8.13998L15.48 16.28L17.64 16.28ZM15.48 16.28L15.48 21.46L17.64 21.46L17.64 16.28L15.48 16.28ZM16.56 29.97L22.32 29.97L22.32 27.75L16.56 27.75L16.56 29.97ZM22.32 29.97C26.0977 29.97 29.16 26.8226 29.16 22.94L27 22.94C27 25.5965 24.9047 27.75 22.32 27.75L22.32 29.97ZM29.16 22.94L29.16 21.46L27 21.46L27 22.94L29.16 22.94ZM17.64 28.86L17.64 21.46L15.48 21.46L15.48 28.86L17.64 28.86ZM16.56 9.25L22.32 9.25L22.32 7.03L16.56 7.03L16.56 9.25ZM22.32 9.25C24.9047 9.25 27 11.4035 27 14.06L29.16 14.06C29.16 10.1774 26.0977 7.03 22.32 7.03L22.32 9.25ZM27 14.06L27 21.46L29.16 21.46L29.16 14.06L27 14.06ZM28.08 20.35L16.56 20.35L16.56 22.57L28.08 22.57L28.08 20.35Z" fill="#313030" fill-opacity="1.000000" fill-rule="nonzero"/>
	</g>
</svg>
