<svg width="22.551132" height="22.500000" viewBox="0 0 22.5511 22.5" fill="none" xmlns="http://www.w3.org/2000/svg" xmlns:xlink="http://www.w3.org/1999/xlink">
	<desc>
			Created with Pixso.
	</desc>
	<defs/>
	<path id="path" d="" fill="#000000" fill-opacity="0" fill-rule="nonzero"/>
	<path id="path" d="M20.0251 8.33331L19.1963 5.29376C18.8767 4.1217 18.7169 3.53571 18.3892 3.09436C18.0627 2.65485 17.6192 2.31604 17.1093 2.11676C16.5973 1.91666 15.9899 1.91666 14.7751 1.91666M2.52505 8.33331L3.35385 5.29376C3.67343 4.1217 3.83322 3.53571 4.16098 3.09436C4.48737 2.65485 4.93091 2.31604 5.44083 2.11676C5.95282 1.91666 6.56024 1.91666 7.77505 1.91666" stroke="#313030" stroke-opacity="1.000000" stroke-width="1.500000"/>
	<path id="path" d="M7.77505 1.91666C7.77505 1.27234 8.29739 0.75 8.94171 0.75L13.6084 0.75C14.2527 0.75 14.7751 1.27234 14.7751 1.91666C14.7751 2.561 14.2527 3.08334 13.6084 3.08334L8.94171 3.08334C8.29739 3.08334 7.77505 2.561 7.77505 1.91666Z" fill="#000000" fill-opacity="0" fill-rule="nonzero"/>
	<path id="path" d="M8.94171 0.75L13.6084 0.75C14.2527 0.75 14.7751 1.27234 14.7751 1.91666C14.7751 2.561 14.2527 3.08334 13.6084 3.08334L8.94171 3.08334C8.29739 3.08334 7.77505 2.561 7.77505 1.91666C7.77505 1.27234 8.29739 0.75 8.94171 0.75Z" stroke="#313030" stroke-opacity="1.000000" stroke-width="1.500000"/>
	<path id="path" d="M5.87836 12.4367L5.85837 12.4167C5.85837 11.9967 6.18835 11.6667 6.60837 11.6667C7.02838 11.6667 7.35837 11.9967 7.35837 12.4167L7.33838 12.4367L5.87836 12.4367ZM7.33838 17.0634L7.35837 17.0834C7.35837 17.5034 7.02838 17.8334 6.60837 17.8334C6.18835 17.8334 5.85837 17.5034 5.85837 17.0834L5.87836 17.0634L7.33838 17.0634Z" fill="#000000" fill-opacity="0" fill-rule="nonzero"/>
	<path id="path" d="M6.60837 12.4167L6.60837 17.0834" stroke="#313030" stroke-opacity="1.000000" stroke-width="1.500000" stroke-linejoin="round" stroke-linecap="round"/>
	<path id="path" d="M15.2117 12.4367L15.1917 12.4167C15.1917 11.9967 15.5217 11.6667 15.9417 11.6667C16.3617 11.6667 16.6917 11.9967 16.6917 12.4167L16.6717 12.4367L15.2117 12.4367ZM16.6717 17.0634L16.6917 17.0834C16.6917 17.5034 16.3617 17.8334 15.9417 17.8334C15.5217 17.8334 15.1917 17.5034 15.1917 17.0834L15.2117 17.0634L16.6717 17.0634Z" fill="#000000" fill-opacity="0" fill-rule="nonzero"/>
	<path id="path" d="M15.9417 12.4167L15.9417 17.0834" stroke="#313030" stroke-opacity="1.000000" stroke-width="1.500000" stroke-linejoin="round" stroke-linecap="round"/>
	<path id="path" d="M10.545 12.4367L10.5251 12.4167C10.5251 11.9967 10.855 11.6667 11.2751 11.6667C11.6951 11.6667 12.0251 11.9967 12.0251 12.4167L12.0051 12.4367L10.545 12.4367ZM12.0051 17.0634L12.0251 17.0834C12.0251 17.5034 11.6951 17.8334 11.2751 17.8334C10.855 17.8334 10.5251 17.5034 10.5251 17.0834L10.545 17.0634L12.0051 17.0634Z" fill="#000000" fill-opacity="0" fill-rule="nonzero"/>
	<path id="path" d="M11.2751 12.4167L11.2751 17.0834" stroke="#313030" stroke-opacity="1.000000" stroke-width="1.500000" stroke-linejoin="round" stroke-linecap="round"/>
	<path id="path" d="M1.07971 16.6442L1.05545 16.6296C0.953583 16.2222 1.1937 15.822 1.60117 15.7201C2.00861 15.6183 2.40878 15.8584 2.51065 16.2658L2.49612 16.2901L1.07971 16.6442ZM1.59094 12.2828L1.6138 12.2994C1.67947 12.7143 1.40512 13.0918 0.990265 13.1574C0.575439 13.2231 0.197906 12.9487 0.132263 12.5339L0.148865 12.511L1.59094 12.2828Z" fill="#000000" fill-opacity="0" fill-rule="nonzero"/>
	<path id="path" d="M1.78305 16.4477C2.41968 18.9942 2.73798 20.2674 3.68738 21.0087C4.63681 21.75 5.94922 21.75 8.57407 21.75L13.9765 21.75C16.6013 21.75 17.9137 21.75 18.8632 21.0087C19.8126 20.2674 20.1309 18.9942 20.7675 16.4477C21.7684 12.444 22.2689 10.4421 21.218 9.0961C20.167 7.75 18.1035 7.75 13.9765 7.75L8.57407 7.75C4.44708 7.75 2.38361 7.75 1.33261 9.0961C0.715698 9.88617 0.633362 10.9023 0.873016 12.4167" stroke="#313030" stroke-opacity="1.000000" stroke-width="1.500000" stroke-linecap="round"/>
</svg>
