<svg width="17.358337" height="17.378754" viewBox="0 0 17.3583 17.3788" fill="none" xmlns="http://www.w3.org/2000/svg" xmlns:xlink="http://www.w3.org/1999/xlink">
	<desc>
			Created with Pixso.
	</desc>
	<defs/>
	<path id="path" d="M12.3406 6.85779L12.319 6.87598C11.9006 6.83997 11.6001 6.48285 11.6361 6.06442C11.6721 5.64597 12.0292 5.34549 12.4477 5.38153L12.4659 5.40317L12.3406 6.85779ZM4.82068 5.41208L4.83875 5.39032C5.2569 5.35135 5.61609 5.64929 5.65509 6.06747C5.69409 6.48566 5.39612 6.84488 4.97797 6.88385L4.95618 6.86578L4.82068 5.41208Z" fill="#000000" fill-opacity="0" fill-rule="nonzero"/>
	<path id="path" d="M12.3834 6.12875C15.3834 6.38708 16.6083 7.92874 16.6083 11.3037L16.6083 11.4121C16.6083 15.1371 15.1167 16.6288 11.3917 16.6288L5.96667 16.6288C2.24164 16.6288 0.75 15.1371 0.75 11.4121L0.75 11.3037C0.75 7.95377 1.95831 6.41208 4.90833 6.13708" stroke="#182978" stroke-opacity="1.000000" stroke-width="1.500000" stroke-linejoin="round" stroke-linecap="round"/>
	<path id="path" d="M7.95337 1.7489L7.93335 1.72891C7.93335 1.3089 8.26337 0.978912 8.68335 0.978912C9.10333 0.978912 9.43335 1.3089 9.43335 1.72891L9.41333 1.7489L7.95337 1.7489ZM9.41333 11.1922L9.43335 11.2122C9.43335 11.6322 9.10333 11.9622 8.68335 11.9622C8.26337 11.9622 7.93335 11.6322 7.93335 11.2122L7.95337 11.1922L9.41333 11.1922Z" fill="#000000" fill-opacity="0" fill-rule="nonzero"/>
	<path id="path" d="M8.68335 1.72891L8.68335 11.2122" stroke="#182978" stroke-opacity="1.000000" stroke-width="1.500000" stroke-linejoin="round" stroke-linecap="round"/>
	<path id="path" d="M11.9771 3.05682L12.0054 3.05682C12.3024 3.35382 12.3024 3.82053 12.0054 4.11749C11.7084 4.41449 11.2417 4.41449 10.9447 4.11749L10.9447 4.0892L11.9771 3.05682ZM6.42206 4.0892L6.42206 4.11749C6.12506 4.41449 5.65839 4.41449 5.36139 4.11749C5.06439 3.82053 5.06439 3.35382 5.36139 3.05685L5.38965 3.05685L6.42206 4.0892Z" fill="#000000" fill-opacity="0" fill-rule="nonzero"/>
	<path id="path" d="M11.475 3.58716L8.68335 0.795502L5.89172 3.58716" stroke="#182978" stroke-opacity="1.000000" stroke-width="1.500000" stroke-linejoin="round" stroke-linecap="round"/>
</svg>
